<svg width="295" height="146" viewBox="0 0 295 146" fill="none" xmlns="http://www.w3.org/2000/svg">
                                                <path d="M190.367 48.9833C189.201 48.2015 187.753 48.1114 186.494 48.7421C183.525 50.2278 181.179 50.7939 180.059 50.2954C178.474 49.5882 177.576 47.7975 177.102 46.4218C176.488 44.6265 174.858 43.3509 172.952 43.1727C172.365 43.1168 171.823 42.88 171.386 42.4877C170.948 42.0938 170.652 41.5801 170.531 41.0027L170.321 39.9912C170.087 38.8756 169.335 37.9139 168.309 37.4176C167.819 37.1814 167.488 36.6996 167.447 36.1634C167.446 36.1391 167.446 36.1145 167.444 36.0897C167.259 31.8972 166.338 30.8407 166.034 30.4925C165.021 29.3327 163.795 29.1273 162.81 28.9624C162.226 28.8648 161.722 28.7803 161.305 28.5278C160.211 27.8675 158.727 24.6536 158.568 22.5982C158.528 22.0715 158.662 21.3151 158.804 20.5142C159.192 18.3275 159.723 15.3323 157.135 13.4638C153.889 11.1262 140.746 11.5508 137.167 13.1679C135.793 13.7877 135.164 14.9402 134.658 15.866C134.075 16.9325 133.781 17.4071 132.914 17.4741C131.999 17.5449 131.326 16.9422 130.328 15.9413C129.461 15.0721 128.479 14.0873 127.084 13.9585C126.072 13.8655 125.098 14.1004 124.157 14.3279C122.702 14.6793 121.773 14.863 121.037 14.2495C120.705 13.9715 120.437 12.9645 120.681 10.9698C120.827 9.75656 120.424 8.56173 119.575 7.69145C118.733 6.8285 117.56 6.39968 116.364 6.52138C103.455 7.81577 96.0583 8.88599 94.3788 9.70202C91.4212 11.1386 88.222 14.3219 87.0956 16.9483C86.6045 18.0901 86.4828 19.2955 86.3753 20.3589C86.2493 21.6069 86.1404 22.6845 85.5105 23.3411C84.8939 23.9839 83.6727 24.4102 82.4918 24.8222C81.1531 25.2895 79.769 25.7726 78.7957 26.6784C77.0574 28.2962 72.6069 36.6662 72.8399 39.6794C72.9398 40.9713 73.4122 42.0135 73.8289 42.9329C74.2819 43.9315 74.6729 44.7941 74.5487 45.8382C74.4561 46.6239 74.0811 47.2874 73.6465 48.0556C72.9613 49.268 72.1079 50.7775 72.2905 53.1385C72.5107 55.9861 78.3629 62.8748 79.5339 64.227C81.1939 66.1435 86.8251 72.4341 89.5985 72.9126C92.1111 73.3462 93.4569 71.8546 94.4398 70.7661C95.2032 69.9196 95.5619 69.5825 96.0549 69.6635C96.7739 69.7813 97.02 70.0735 97.3925 70.5155C97.9654 71.1955 98.7482 72.1264 100.859 71.7895C102.437 71.5388 104.145 70.3046 105.795 69.1107C107.22 68.0803 109.172 66.6695 109.982 66.936C110.75 67.1883 110.979 67.6588 111.348 68.5374C111.719 69.4184 112.179 70.5148 113.547 71.0508L113.547 71.051C114.786 71.536 116.136 71.0594 117.442 70.5984C119.007 70.0459 120.09 69.7278 120.851 70.3156C121.536 70.8442 121.141 72.201 120.46 74.2107C119.939 75.751 119.4 77.3432 119.49 78.8916C119.626 81.204 121.627 82.6776 123.562 84.1025C124.911 85.0956 126.305 86.1225 126.776 87.2756C127.49 89.0253 127.099 91.2337 126.803 92.3932C126.469 93.6892 126.778 95.0685 127.627 96.0812C127.889 96.3944 128.044 96.7766 128.076 97.1856C128.108 97.603 128.01 98.0123 127.792 98.3678C126.653 100.219 125.342 103.025 125.562 105.878C125.76 108.441 127.041 110.147 128.397 111.952C129.586 113.536 130.815 115.174 131.683 117.713C132.295 119.507 132.284 120.994 132.274 122.431C132.263 123.927 132.253 125.34 132.979 126.756C133.848 128.457 135.55 128.922 136.917 129.297C137.855 129.553 138.666 129.775 138.923 130.263C139.358 131.085 139.143 132.144 138.916 133.265C138.741 134.127 138.561 135.018 138.675 135.879C138.975 138.156 140.629 140.655 144.371 140.838C144.611 140.85 144.844 140.846 145.071 140.828C146.797 140.695 148.154 139.773 149.367 138.948C150.392 138.252 151.282 137.65 152.155 137.652C152.891 137.652 153.612 137.79 154.377 137.937C156.088 138.265 158.028 138.638 160.047 137.216C162.634 135.393 163.141 131.114 163.588 127.338C163.792 125.618 164.1 123.019 164.602 122.639C165.213 122.177 165.934 121.931 166.697 121.67C168.142 121.176 169.94 120.562 170.643 118.193C171.168 116.423 170.386 114.982 169.695 113.712C168.937 112.315 168.535 111.472 169.089 110.389C169.748 109.107 171.326 108.09 172.998 107.014C174.825 105.838 176.713 104.622 177.674 102.835C179.528 99.3836 179.003 93.0954 177.842 90.4514C177.437 89.5266 176.753 88.7977 176.091 88.0931C174.8 86.7185 173.686 85.5313 174.396 82.9319C174.958 80.8766 178.126 77.3598 181.19 73.959C184.673 70.0922 188.275 66.0936 189.793 62.6321C191.023 59.8292 191.788 56.4108 192.066 52.4709C192.165 51.0665 191.53 49.7632 190.367 48.9833Z" fill="url(#paint0_linear_580_3996)" />
                                                <g filter="url(#filter0_d_580_3996)">
                                                        <path d="M7.49827 57.8336H15.3622L22.033 74.1002H22.3409L29.0117 57.8336H36.8756V84.1064H30.6923V67.9681H30.4742L24.1625 83.9397H20.2113L13.8997 67.8783H13.6816V84.1064H7.49827V57.8336ZM40.8364 84.1064V57.8336H59.1556V62.9907H47.1866V68.3787H58.2191V73.5486H47.1866V78.9494H59.1556V84.1064H40.8364ZM80.374 66.4159C80.2286 65.8771 80.0148 65.4024 79.7326 64.9919C79.4503 64.5729 79.104 64.2179 78.6934 63.9272C78.2829 63.6364 77.8125 63.4183 77.2823 63.2729C76.7521 63.119 76.1705 63.042 75.5376 63.042C74.2633 63.042 73.1601 63.3499 72.2279 63.9656C71.3042 64.5814 70.5901 65.4794 70.0855 66.6596C69.5809 67.8313 69.3286 69.2553 69.3286 70.9315C69.3286 72.6164 69.5723 74.0531 70.0598 75.2419C70.5473 76.4307 71.2529 77.3373 72.1765 77.9616C73.1002 78.5859 74.2206 78.8981 75.5376 78.8981C76.7007 78.8981 77.6843 78.7099 78.4882 78.3336C79.3007 77.9487 79.9164 77.4057 80.3355 76.7044C80.7546 76.0031 80.9641 75.1778 80.9641 74.2285L82.1443 74.3696H75.7557V69.7385H87.0833V73.215C87.0833 75.5669 86.583 77.581 85.5824 79.2573C84.5903 80.9335 83.2219 82.2207 81.4772 83.1186C79.7411 84.0166 77.7441 84.4656 75.4863 84.4656C72.9805 84.4656 70.7782 83.9226 68.8796 82.8364C66.981 81.7503 65.5014 80.2023 64.4409 78.1925C63.3804 76.1741 62.8502 73.7795 62.8502 71.0085C62.8502 68.8533 63.1709 66.9419 63.8123 65.2742C64.4538 63.5979 65.3475 62.1782 66.4935 61.0151C67.6481 59.852 68.9822 58.9711 70.496 58.3724C72.0183 57.7737 73.6561 57.4744 75.4093 57.4744C76.9317 57.4744 78.3471 57.6925 79.6556 58.1287C80.9726 58.5648 82.1358 59.1806 83.1449 59.976C84.1627 60.7713 84.988 61.7164 85.6208 62.8111C86.2537 63.9058 86.6471 65.1074 86.8011 66.4159H80.374ZM95.6977 84.1064H88.8729L97.7374 57.8336H106.191L115.056 84.1064H108.231L102.061 64.4531H101.855L95.6977 84.1064ZM94.7868 73.7666H109.052V78.5902H94.7868V73.7666Z" fill="#000F9E" />
                                                        <mask id="path-3-outside-1_580_3996" maskUnits="userSpaceOnUse" x="8.31633" y="55.3" width="110" height="28" fill="black">
                                                                <rect fill="white" x="8.31633" y="55.3" width="110" height="28" />
                                                                <path d="M9.30475 56.0272H17.1686L23.8395 72.2938H24.1474L30.8182 56.0272H38.6821V82.3H32.4987V66.1617H32.2807L25.969 82.1333H22.0178L15.7062 66.0719H15.4881V82.3H9.30475V56.0272ZM42.6429 82.3V56.0272H60.9621V61.1843H48.993V66.5723H60.0256V71.7422H48.993V77.143H60.9621V82.3H42.6429ZM82.1805 64.6095C82.0351 64.0707 81.8213 63.596 81.539 63.1855C81.2568 62.7665 80.9104 62.4115 80.4999 62.1208C80.0894 61.83 79.619 61.6119 79.0888 61.4665C78.5585 61.3126 77.977 61.2356 77.3441 61.2356C76.0698 61.2356 74.9666 61.5435 74.0343 62.1592C73.1107 62.775 72.3966 63.673 71.892 64.8532C71.3874 66.0249 71.1351 67.4489 71.1351 69.1251C71.1351 70.81 71.3788 72.2468 71.8663 73.4355C72.3538 74.6243 73.0594 75.5309 73.983 76.1552C74.9067 76.7795 76.027 77.0917 77.3441 77.0917C78.5072 77.0917 79.4907 76.9035 80.2947 76.5272C81.1071 76.1424 81.7229 75.5993 82.142 74.898C82.561 74.1967 82.7706 73.3714 82.7706 72.4221L83.9508 72.5632H77.5622V67.9321H88.8898V71.4086C88.8898 73.7605 88.3895 75.7746 87.3889 77.4509C86.3968 79.1271 85.0284 80.4143 83.2837 81.3123C81.5476 82.2102 79.5506 82.6592 77.2928 82.6592C74.787 82.6592 72.5847 82.1162 70.6861 81.03C68.7875 79.9439 67.3079 78.3959 66.2474 76.3861C65.1869 74.3677 64.6567 71.9731 64.6567 69.2021C64.6567 67.0469 64.9774 65.1355 65.6188 63.4678C66.2603 61.7915 67.154 60.3718 68.3 59.2087C69.4546 58.0456 70.7887 57.1647 72.3025 56.566C73.8248 55.9673 75.4626 55.668 77.2158 55.668C78.7381 55.668 80.1536 55.8861 81.4621 56.3223C82.7791 56.7584 83.9423 57.3742 84.9514 58.1696C85.9692 58.9649 86.7945 59.91 87.4273 61.0047C88.0602 62.0994 88.4536 63.301 88.6076 64.6095H82.1805ZM97.5042 82.3H90.6794L99.5439 56.0272H107.998L116.862 82.3H110.038L103.867 62.6467H103.662L97.5042 82.3ZM96.5933 71.9602H110.859V76.7838H96.5933V71.9602Z" />
                                                        </mask>
                                                        <path d="M9.30475 56.0272H17.1686L23.8395 72.2938H24.1474L30.8182 56.0272H38.6821V82.3H32.4987V66.1617H32.2807L25.969 82.1333H22.0178L15.7062 66.0719H15.4881V82.3H9.30475V56.0272ZM42.6429 82.3V56.0272H60.9621V61.1843H48.993V66.5723H60.0256V71.7422H48.993V77.143H60.9621V82.3H42.6429ZM82.1805 64.6095C82.0351 64.0707 81.8213 63.596 81.539 63.1855C81.2568 62.7665 80.9104 62.4115 80.4999 62.1208C80.0894 61.83 79.619 61.6119 79.0888 61.4665C78.5585 61.3126 77.977 61.2356 77.3441 61.2356C76.0698 61.2356 74.9666 61.5435 74.0343 62.1592C73.1107 62.775 72.3966 63.673 71.892 64.8532C71.3874 66.0249 71.1351 67.4489 71.1351 69.1251C71.1351 70.81 71.3788 72.2468 71.8663 73.4355C72.3538 74.6243 73.0594 75.5309 73.983 76.1552C74.9067 76.7795 76.027 77.0917 77.3441 77.0917C78.5072 77.0917 79.4907 76.9035 80.2947 76.5272C81.1071 76.1424 81.7229 75.5993 82.142 74.898C82.561 74.1967 82.7706 73.3714 82.7706 72.4221L83.9508 72.5632H77.5622V67.9321H88.8898V71.4086C88.8898 73.7605 88.3895 75.7746 87.3889 77.4509C86.3968 79.1271 85.0284 80.4143 83.2837 81.3123C81.5476 82.2102 79.5506 82.6592 77.2928 82.6592C74.787 82.6592 72.5847 82.1162 70.6861 81.03C68.7875 79.9439 67.3079 78.3959 66.2474 76.3861C65.1869 74.3677 64.6567 71.9731 64.6567 69.2021C64.6567 67.0469 64.9774 65.1355 65.6188 63.4678C66.2603 61.7915 67.154 60.3718 68.3 59.2087C69.4546 58.0456 70.7887 57.1647 72.3025 56.566C73.8248 55.9673 75.4626 55.668 77.2158 55.668C78.7381 55.668 80.1536 55.8861 81.4621 56.3223C82.7791 56.7584 83.9423 57.3742 84.9514 58.1696C85.9692 58.9649 86.7945 59.91 87.4273 61.0047C88.0602 62.0994 88.4536 63.301 88.6076 64.6095H82.1805ZM97.5042 82.3H90.6794L99.5439 56.0272H107.998L116.862 82.3H110.038L103.867 62.6467H103.662L97.5042 82.3ZM96.5933 71.9602H110.859V76.7838H96.5933V71.9602Z" fill="#DF231D" />
                                                        <path d="M9.30475 56.0272V55.666H8.9435V56.0272H9.30475ZM17.1686 56.0272L17.5029 55.8901L17.4109 55.666H17.1686V56.0272ZM23.8395 72.2938L23.5052 72.4309L23.5972 72.655H23.8395V72.2938ZM24.1474 72.2938V72.655H24.3897L24.4816 72.4309L24.1474 72.2938ZM30.8182 56.0272V55.666H30.5759L30.484 55.8901L30.8182 56.0272ZM38.6821 56.0272H39.0434V55.666H38.6821V56.0272ZM38.6821 82.3V82.6613H39.0434V82.3H38.6821ZM32.4987 82.3H32.1375V82.6613H32.4987V82.3ZM32.4987 66.1617H32.86V65.8005H32.4987V66.1617ZM32.2807 66.1617V65.8005H32.035L31.9447 66.029L32.2807 66.1617ZM25.969 82.1333V82.4945H26.2147L26.305 82.266L25.969 82.1333ZM22.0178 82.1333L21.6816 82.2654L21.7717 82.4945H22.0178V82.1333ZM15.7062 66.0719L16.0424 65.9398L15.9524 65.7107H15.7062V66.0719ZM15.4881 66.0719V65.7107H15.1269V66.0719H15.4881ZM15.4881 82.3V82.6613H15.8494V82.3H15.4881ZM9.30475 82.3H8.9435V82.6613H9.30475V82.3ZM9.30475 56.3885H17.1686V55.666H9.30475V56.3885ZM16.8344 56.1643L23.5052 72.4309L24.1737 72.1567L17.5029 55.8901L16.8344 56.1643ZM23.8395 72.655H24.1474V71.9325H23.8395V72.655ZM24.4816 72.4309L31.1524 56.1643L30.484 55.8901L23.8131 72.1567L24.4816 72.4309ZM30.8182 56.3885H38.6821V55.666H30.8182V56.3885ZM38.3209 56.0272V82.3H39.0434V56.0272H38.3209ZM38.6821 81.9388H32.4987V82.6613H38.6821V81.9388ZM32.86 82.3V66.1617H32.1375V82.3H32.86ZM32.4987 65.8005H32.2807V66.523H32.4987V65.8005ZM31.9447 66.029L25.6331 82.0005L26.305 82.266L32.6166 66.2945L31.9447 66.029ZM25.969 81.772H22.0178V82.4945H25.969V81.772ZM22.3541 82.0012L16.0424 65.9398L15.37 66.2041L21.6816 82.2654L22.3541 82.0012ZM15.7062 65.7107H15.4881V66.4332H15.7062V65.7107ZM15.1269 66.0719V82.3H15.8494V66.0719H15.1269ZM15.4881 81.9388H9.30475V82.6613H15.4881V81.9388ZM9.666 82.3V56.0272H8.9435V82.3H9.666ZM42.6429 82.3H42.2817V82.6613H42.6429V82.3ZM42.6429 56.0272V55.666H42.2817V56.0272H42.6429ZM60.9621 56.0272H61.3233V55.666H60.9621V56.0272ZM60.9621 61.1843V61.5455H61.3233V61.1843H60.9621ZM48.993 61.1843V60.823H48.6318V61.1843H48.993ZM48.993 66.5723H48.6318V66.9335H48.993V66.5723ZM60.0256 66.5723H60.3868V66.211H60.0256V66.5723ZM60.0256 71.7422V72.1034H60.3868V71.7422H60.0256ZM48.993 71.7422V71.3809H48.6318V71.7422H48.993ZM48.993 77.143H48.6318V77.5042H48.993V77.143ZM60.9621 77.143H61.3233V76.7817H60.9621V77.143ZM60.9621 82.3V82.6613H61.3233V82.3H60.9621ZM43.0042 82.3V56.0272H42.2817V82.3H43.0042ZM42.6429 56.3885H60.9621V55.666H42.6429V56.3885ZM60.6008 56.0272V61.1843H61.3233V56.0272H60.6008ZM60.9621 60.823H48.993V61.5455H60.9621V60.823ZM48.6318 61.1843V66.5723H49.3543V61.1843H48.6318ZM48.993 66.9335H60.0256V66.211H48.993V66.9335ZM59.6643 66.5723V71.7422H60.3868V66.5723H59.6643ZM60.0256 71.3809H48.993V72.1034H60.0256V71.3809ZM48.6318 71.7422V77.143H49.3543V71.7422H48.6318ZM48.993 77.5042H60.9621V76.7817H48.993V77.5042ZM60.6008 77.143V82.3H61.3233V77.143H60.6008ZM60.9621 81.9388H42.6429V82.6613H60.9621V81.9388ZM82.1805 64.6095L81.8317 64.7036L81.9038 64.9707H82.1805V64.6095ZM81.539 63.1855L81.2394 63.3873L81.2414 63.3902L81.539 63.1855ZM79.0888 61.4665L78.9881 61.8135L78.9933 61.8149L79.0888 61.4665ZM74.0343 62.1592L73.8352 61.8578L73.834 61.8587L74.0343 62.1592ZM71.892 64.8532L72.2238 64.9961L72.2241 64.9953L71.892 64.8532ZM71.8663 73.4355L72.2006 73.2985L71.8663 73.4355ZM73.983 76.1552L74.1853 75.8559L73.983 76.1552ZM80.2947 76.5272L80.4478 76.8544L80.4493 76.8537L80.2947 76.5272ZM82.142 74.898L81.8319 74.7127L82.142 74.898ZM82.7706 72.4221L82.8135 72.0634L82.4093 72.0151V72.4221H82.7706ZM83.9508 72.5632V72.9244L83.9937 72.2045L83.9508 72.5632ZM77.5622 72.5632H77.2009V72.9244H77.5622V72.5632ZM77.5622 67.9321V67.5708H77.2009V67.9321H77.5622ZM88.8898 67.9321H89.251V67.5708H88.8898V67.9321ZM87.3889 77.4509L87.0787 77.2657L87.078 77.2669L87.3889 77.4509ZM83.2837 81.3123L83.1184 80.9911L83.1178 80.9914L83.2837 81.3123ZM70.6861 81.03L70.8655 80.7165L70.6861 81.03ZM66.2474 76.3861L65.9276 76.5541L65.9279 76.5547L66.2474 76.3861ZM65.6188 63.4678L65.956 63.5974L65.9562 63.5969L65.6188 63.4678ZM68.3 59.2087L68.0436 58.9542L68.0427 58.9551L68.3 59.2087ZM72.3025 56.566L72.1703 56.2298L72.1696 56.2301L72.3025 56.566ZM81.4621 56.3223L81.3478 56.665L81.3485 56.6652L81.4621 56.3223ZM84.9514 58.1696L84.7278 58.4533L84.729 58.4542L84.9514 58.1696ZM87.4273 61.0047L87.1146 61.1855V61.1855L87.4273 61.0047ZM88.6076 64.6095V64.9707H89.0138L88.9663 64.5673L88.6076 64.6095ZM82.5292 64.5154C82.3745 63.9418 82.1447 63.4289 81.8367 62.9809L81.2414 63.3902C81.4978 63.7632 81.6957 64.1996 81.8317 64.7036L82.5292 64.5154ZM81.8387 62.9837C81.5322 62.5286 81.1551 62.1421 80.7087 61.826L80.2911 62.4156C80.6658 62.681 80.9815 63.0043 81.2394 63.3873L81.8387 62.9837ZM80.7087 61.826C80.2608 61.5087 79.7514 61.2736 79.1843 61.1181L78.9933 61.8149C79.4867 61.9502 79.918 62.1513 80.2911 62.4156L80.7087 61.826ZM79.1895 61.1196C78.6222 60.9549 78.0062 60.8743 77.3441 60.8743V61.5968C77.9478 61.5968 78.4949 61.6703 78.9881 61.8134L79.1895 61.1196ZM77.3441 60.8743C76.0093 60.8743 74.8345 61.1977 73.8352 61.8578L74.2335 62.4607C75.0986 61.8892 76.1304 61.5968 77.3441 61.5968V60.8743ZM73.834 61.8587C72.8432 62.5192 72.0876 63.4768 71.5598 64.7112L72.2241 64.9953C72.7056 63.8692 73.3782 63.0309 74.2347 62.4598L73.834 61.8587ZM71.5602 64.7104C71.0311 65.9389 70.7738 67.4144 70.7738 69.1251H71.4963C71.4963 67.4833 71.7437 66.1109 72.2238 64.9961L71.5602 64.7104ZM70.7738 69.1251C70.7738 70.8431 71.0222 72.3291 71.5321 73.5726L72.2006 73.2985C71.7355 72.1644 71.4963 70.7768 71.4963 69.1251H70.7738ZM71.5321 73.5726C72.0424 74.8169 72.7895 75.7844 73.7807 76.4545L74.1853 75.8559C73.3293 75.2773 72.6653 74.4317 72.2006 73.2985L71.5321 73.5726ZM73.7807 76.4545C74.7743 77.1261 75.9683 77.4529 77.3441 77.4529V76.7304C76.0858 76.7304 75.0391 76.4329 74.1853 75.8559L73.7807 76.4545ZM77.3441 77.4529C78.5444 77.4529 79.5835 77.259 80.4478 76.8544L80.1415 76.2C79.398 76.5481 78.47 76.7304 77.3441 76.7304V77.4529ZM80.4493 76.8537C81.3197 76.4414 81.9927 75.8521 82.4521 75.0833L81.8319 74.7127C81.4532 75.3464 80.8946 75.8433 80.14 76.2007L80.4493 76.8537ZM82.4521 75.0833C82.9097 74.3174 83.1318 73.4259 83.1318 72.4221H82.4093C82.4093 73.3169 82.2124 74.0759 81.8319 74.7127L82.4521 75.0833ZM82.7277 72.7808L83.9079 72.9219L83.9937 72.2045L82.8135 72.0634L82.7277 72.7808ZM83.9508 72.2019H77.5622V72.9244H83.9508V72.2019ZM77.9234 72.5632V67.9321H77.2009V72.5632H77.9234ZM77.5622 68.2933H88.8898V67.5708H77.5622V68.2933ZM88.5285 67.9321V71.4086H89.251V67.9321H88.5285ZM88.5285 71.4086C88.5285 73.7087 88.0396 75.6559 87.0787 77.2657L87.699 77.636C88.7393 75.8933 89.251 73.8123 89.251 71.4086H88.5285ZM87.078 77.2669C86.1208 78.8841 84.8031 80.1239 83.1184 80.9911L83.449 81.6335C85.2537 80.7046 86.6728 79.3701 87.6997 77.6349L87.078 77.2669ZM83.1178 80.9914C81.4404 81.859 79.5019 82.298 77.2928 82.298V83.0205C79.5994 83.0205 81.6548 82.5615 83.4497 81.6331L83.1178 80.9914ZM77.2928 82.298C74.8406 82.298 72.7019 81.767 70.8655 80.7165L70.5067 81.3436C72.4675 82.4653 74.7333 83.0205 77.2928 83.0205V82.298ZM70.8655 80.7165C69.0288 79.6657 67.5967 78.1691 66.5669 76.2175L65.9279 76.5547C67.0191 78.6226 68.5462 80.222 70.5067 81.3436L70.8655 80.7165ZM66.5672 76.2181C65.5392 74.2615 65.0179 71.927 65.0179 69.2021H64.2954C64.2954 72.0191 64.8346 74.4739 65.9276 76.5541L66.5672 76.2181ZM65.0179 69.2021C65.0179 67.0824 65.3334 65.2162 65.956 63.5974L65.2817 63.3381C64.6214 65.0547 64.2954 67.0115 64.2954 69.2021H65.0179ZM65.9562 63.5969C66.5816 61.9625 67.4496 60.5865 68.5573 59.4622L68.0427 58.9551C66.8583 60.1572 65.9389 61.6205 65.2814 63.3387L65.9562 63.5969ZM68.5564 59.4632C69.6761 58.3352 70.9683 57.4821 72.4353 56.9019L72.1696 56.2301C70.6092 56.8472 69.233 57.7559 68.0436 58.9542L68.5564 59.4632ZM72.4347 56.9022C73.912 56.3212 75.5046 56.0293 77.2158 56.0293V55.3068C75.4206 55.3068 73.7377 55.6134 72.1703 56.2298L72.4347 56.9022ZM77.2158 56.0293C78.7033 56.0293 80.0798 56.2423 81.3478 56.665L81.5763 55.9795C80.2273 55.5299 78.773 55.3068 77.2158 55.3068V56.0293ZM81.3485 56.6652C82.6289 57.0892 83.7541 57.6859 84.7278 58.4533L85.175 57.8858C84.1304 57.0625 82.9294 56.4276 81.5756 55.9793L81.3485 56.6652ZM84.729 58.4542C85.711 59.2217 86.5054 60.1317 87.1146 61.1855L87.7401 60.8239C87.0835 59.6882 86.2273 58.7082 85.1739 57.8849L84.729 58.4542ZM87.1146 61.1855C87.7218 62.2358 88.1003 63.39 88.2488 64.6517L88.9663 64.5673C88.8069 63.212 88.3986 61.9629 87.7401 60.8239L87.1146 61.1855ZM88.6076 64.2482H82.1805V64.9707H88.6076V64.2482ZM97.5042 82.3V82.6613H97.7695L97.8489 82.4081L97.5042 82.3ZM90.6794 82.3L90.3371 82.1846L90.1762 82.6613H90.6794V82.3ZM99.5439 56.0272V55.666H99.2845L99.2016 55.9117L99.5439 56.0272ZM107.998 56.0272L108.34 55.9117L108.257 55.666H107.998V56.0272ZM116.862 82.3V82.6613H117.366L117.205 82.1846L116.862 82.3ZM110.038 82.3L109.693 82.4083L109.772 82.6613H110.038V82.3ZM103.867 62.6467L104.212 62.5385L104.132 62.2855H103.867V62.6467ZM103.662 62.6467V62.2855H103.396L103.317 62.5387L103.662 62.6467ZM96.5933 71.9602V71.599H96.2321V71.9602H96.5933ZM110.859 71.9602H111.22V71.599H110.859V71.9602ZM110.859 76.7838V77.145H111.22V76.7838H110.859ZM96.5933 76.7838H96.2321V77.145H96.5933V76.7838ZM97.5042 81.9388H90.6794V82.6613H97.5042V81.9388ZM91.0217 82.4155L99.8862 56.1427L99.2016 55.9117L90.3371 82.1846L91.0217 82.4155ZM99.5439 56.3885H107.998V55.666H99.5439V56.3885ZM107.656 56.1427L116.52 82.4155L117.205 82.1846L108.34 55.9117L107.656 56.1427ZM116.862 81.9388H110.038V82.6613H116.862V81.9388ZM110.382 82.1918L104.212 62.5385L103.522 62.7549L109.693 82.4083L110.382 82.1918ZM103.867 62.2855H103.662V63.008H103.867V62.2855ZM103.317 62.5387L97.1594 82.192L97.8489 82.4081L104.007 62.7547L103.317 62.5387ZM96.5933 72.3215H110.859V71.599H96.5933V72.3215ZM110.497 71.9602V76.7838H111.22V71.9602H110.497ZM110.859 76.4225H96.5933V77.145H110.859V76.4225ZM96.9546 76.7838V71.9602H96.2321V76.7838H96.9546Z" fill="white" mask="url(#path-3-outside-1_580_3996)" />
                                                </g>
                                                <mask id="path-5-outside-2_580_3996" maskUnits="userSpaceOnUse" x="133.49" y="57.1062" width="156" height="28" fill="black">
                                                        <rect fill="white" x="133.49" y="57.1062" width="156" height="28" />
                                                        <path d="M134.479 57.8334H142.342L149.013 74.0999H149.321L155.992 57.8334H163.856V84.1062H157.672V67.9679H157.454L151.143 83.9394H147.192L140.88 67.8781H140.662V84.1062H134.479V57.8334ZM173.5 84.1062H166.675L175.539 57.8334H183.993L192.858 84.1062H186.033L179.863 64.4529H179.657L173.5 84.1062ZM172.589 73.7664H186.854V78.5899H172.589V73.7664ZM195.687 84.1062V57.8334H206.54C208.507 57.8334 210.204 58.1883 211.633 58.8981C213.069 59.5994 214.177 60.6086 214.955 61.9257C215.733 63.2342 216.123 64.7864 216.123 66.5824C216.123 68.4041 215.725 69.952 214.929 71.2263C214.134 72.4921 213.005 73.4585 211.543 74.1256C210.08 74.7841 208.348 75.1134 206.347 75.1134H199.484V70.1103H205.167C206.125 70.1103 206.924 69.9863 207.566 69.7382C208.216 69.4817 208.708 69.0968 209.041 68.5837C209.375 68.062 209.541 67.3949 209.541 66.5824C209.541 65.7699 209.375 65.0986 209.041 64.5683C208.708 64.0295 208.216 63.6276 207.566 63.3625C206.916 63.0888 206.116 62.9519 205.167 62.9519H202.037V84.1062H195.687ZM210.478 72.0987L217.021 84.1062H210.093L203.679 72.0987H210.478ZM219.605 84.1062V57.8334H225.956V68.9429H226.302L234.987 57.8334H242.466L233.152 69.5586L242.633 84.1062H235.038L228.496 73.7792L225.956 76.9864V84.1062H219.605ZM244.971 84.1062V57.8334H263.29V62.9904H251.321V68.3784H262.353V73.5483H251.321V78.9491H263.29V84.1062H244.971ZM266.407 62.9904V57.8334H288.613V62.9904H280.647V84.1062H274.387V62.9904H266.407Z" />
                                                </mask>
                                                <path d="M134.479 57.8334H142.342L149.013 74.0999H149.321L155.992 57.8334H163.856V84.1062H157.672V67.9679H157.454L151.143 83.9394H147.192L140.88 67.8781H140.662V84.1062H134.479V57.8334ZM173.5 84.1062H166.675L175.539 57.8334H183.993L192.858 84.1062H186.033L179.863 64.4529H179.657L173.5 84.1062ZM172.589 73.7664H186.854V78.5899H172.589V73.7664ZM195.687 84.1062V57.8334H206.54C208.507 57.8334 210.204 58.1883 211.633 58.8981C213.069 59.5994 214.177 60.6086 214.955 61.9257C215.733 63.2342 216.123 64.7864 216.123 66.5824C216.123 68.4041 215.725 69.952 214.929 71.2263C214.134 72.4921 213.005 73.4585 211.543 74.1256C210.08 74.7841 208.348 75.1134 206.347 75.1134H199.484V70.1103H205.167C206.125 70.1103 206.924 69.9863 207.566 69.7382C208.216 69.4817 208.708 69.0968 209.041 68.5837C209.375 68.062 209.541 67.3949 209.541 66.5824C209.541 65.7699 209.375 65.0986 209.041 64.5683C208.708 64.0295 208.216 63.6276 207.566 63.3625C206.916 63.0888 206.116 62.9519 205.167 62.9519H202.037V84.1062H195.687ZM210.478 72.0987L217.021 84.1062H210.093L203.679 72.0987H210.478ZM219.605 84.1062V57.8334H225.956V68.9429H226.302L234.987 57.8334H242.466L233.152 69.5586L242.633 84.1062H235.038L228.496 73.7792L225.956 76.9864V84.1062H219.605ZM244.971 84.1062V57.8334H263.29V62.9904H251.321V68.3784H262.353V73.5483H251.321V78.9491H263.29V84.1062H244.971ZM266.407 62.9904V57.8334H288.613V62.9904H280.647V84.1062H274.387V62.9904H266.407Z" fill="#000F9E" />
                                                <path d="M134.479 57.8334V57.4721H134.117V57.8334H134.479ZM142.342 57.8334L142.677 57.6963L142.585 57.4721H142.342V57.8334ZM149.013 74.0999L148.679 74.237L148.771 74.4612H149.013V74.0999ZM149.321 74.0999V74.4612H149.563L149.655 74.237L149.321 74.0999ZM155.992 57.8334V57.4721H155.75L155.658 57.6963L155.992 57.8334ZM163.856 57.8334H164.217V57.4721H163.856V57.8334ZM163.856 84.1062V84.4675H164.217V84.1062H163.856ZM157.673 84.1062H157.311V84.4675H157.673V84.1062ZM157.673 67.9679H158.034V67.6066H157.673V67.9679ZM157.454 67.9679V67.6066H157.209L157.118 67.8351L157.454 67.9679ZM151.143 83.9394V84.3007H151.388L151.479 84.0722L151.143 83.9394ZM147.192 83.9394L146.855 84.0716L146.945 84.3007H147.192V83.9394ZM140.88 67.8781L141.216 67.746L141.126 67.5168H140.88V67.8781ZM140.662 67.8781V67.5168H140.301V67.8781H140.662ZM140.662 84.1062V84.4675H141.023V84.1062H140.662ZM134.479 84.1062H134.117V84.4675H134.479V84.1062ZM134.479 58.1946H142.342V57.4721H134.479V58.1946ZM142.008 57.9704L148.679 74.237L149.347 73.9629L142.677 57.6963L142.008 57.9704ZM149.013 74.4612H149.321V73.7387H149.013V74.4612ZM149.655 74.237L156.326 57.9704L155.658 57.6963L148.987 73.9629L149.655 74.237ZM155.992 58.1946H163.856V57.4721H155.992V58.1946ZM163.495 57.8334V84.1062H164.217V57.8334H163.495ZM163.856 83.7449H157.673V84.4675H163.856V83.7449ZM158.034 84.1062V67.9679H157.311V84.1062H158.034ZM157.673 67.6066H157.454V68.3292H157.673V67.6066ZM157.118 67.8351L150.807 83.8067L151.479 84.0722L157.79 68.1007L157.118 67.8351ZM151.143 83.5782H147.192V84.3007H151.143V83.5782ZM147.528 83.8073L141.216 67.746L140.544 68.0102L146.855 84.0716L147.528 83.8073ZM140.88 67.5168H140.662V68.2394H140.88V67.5168ZM140.301 67.8781V84.1062H141.023V67.8781H140.301ZM140.662 83.7449H134.479V84.4675H140.662V83.7449ZM134.84 84.1062V57.8334H134.117V84.1062H134.84ZM173.5 84.1062V84.4675H173.765L173.844 84.2142L173.5 84.1062ZM166.675 84.1062L166.333 83.9907L166.172 84.4675H166.675V84.1062ZM175.539 57.8334V57.4721H175.28L175.197 57.7179L175.539 57.8334ZM183.993 57.8334L184.336 57.7179L184.253 57.4721H183.993V57.8334ZM192.858 84.1062V84.4675H193.361L193.2 83.9907L192.858 84.1062ZM186.033 84.1062L185.689 84.2144L185.768 84.4675H186.033V84.1062ZM179.863 64.4529L180.207 64.3447L180.128 64.0916H179.863V64.4529ZM179.657 64.4529V64.0916H179.392L179.313 64.3449L179.657 64.4529ZM172.589 73.7664V73.4051H172.228V73.7664H172.589ZM186.854 73.7664H187.215V73.4051H186.854V73.7664ZM186.854 78.5899V78.9512H187.215V78.5899H186.854ZM172.589 78.5899H172.228V78.9512H172.589V78.5899ZM173.5 83.7449H166.675V84.4675H173.5V83.7449ZM167.017 84.2217L175.882 57.9488L175.197 57.7179L166.333 83.9907L167.017 84.2217ZM175.539 58.1946H183.993V57.4721H175.539V58.1946ZM183.651 57.9488L192.516 84.2217L193.2 83.9907L184.336 57.7179L183.651 57.9488ZM192.858 83.7449H186.033V84.4675H192.858V83.7449ZM186.378 83.998L180.207 64.3447L179.518 64.5611L185.689 84.2144L186.378 83.998ZM179.863 64.0916H179.657V64.8141H179.863V64.0916ZM179.313 64.3449L173.155 83.9982L173.844 84.2142L180.002 64.5609L179.313 64.3449ZM172.589 74.1277H186.854V73.4051H172.589V74.1277ZM186.493 73.7664V78.5899H187.215V73.7664H186.493ZM186.854 78.2287H172.589V78.9512H186.854V78.2287ZM172.95 78.5899V73.7664H172.228V78.5899H172.95ZM195.687 84.1062H195.325V84.4675H195.687V84.1062ZM195.687 57.8334V57.4721H195.325V57.8334H195.687ZM211.633 58.8981L211.472 59.2216L211.474 59.2228L211.633 58.8981ZM214.955 61.9257L214.644 62.1094L214.645 62.1103L214.955 61.9257ZM214.929 71.2264L215.235 71.4186L215.236 71.4176L214.929 71.2264ZM211.543 74.1256L211.691 74.455L211.693 74.4543L211.543 74.1256ZM199.484 75.1134H199.123V75.4746H199.484V75.1134ZM199.484 70.1103V69.749H199.123V70.1103H199.484ZM207.566 69.7382L207.696 70.0752L207.699 70.0743L207.566 69.7382ZM209.041 68.5837L209.344 68.7806L209.346 68.7783L209.041 68.5837ZM209.041 64.5683L208.734 64.7585L208.735 64.7607L209.041 64.5683ZM207.566 63.3625L207.426 63.6954L207.429 63.697L207.566 63.3625ZM202.037 62.9519V62.5907H201.676V62.9519H202.037ZM202.037 84.1062V84.4675H202.398V84.1062H202.037ZM210.478 72.0987L210.795 71.9258L210.693 71.7374H210.478V72.0987ZM217.021 84.1062V84.4675H217.629L217.338 83.9334L217.021 84.1062ZM210.093 84.1062L209.774 84.2764L209.877 84.4675H210.093V84.1062ZM203.679 72.0987V71.7374H203.076L203.36 72.2689L203.679 72.0987ZM196.048 84.1062V57.8334H195.325V84.1062H196.048ZM195.687 58.1946H206.54V57.4721H195.687V58.1946ZM206.54 58.1946C208.464 58.1946 210.104 58.5417 211.472 59.2216L211.793 58.5746C210.305 57.8348 208.55 57.4721 206.54 57.4721V58.1946ZM211.474 59.2228C212.85 59.8945 213.903 60.8561 214.644 62.1094L215.266 61.7419C214.45 60.3611 213.288 59.3043 211.791 58.5735L211.474 59.2228ZM214.645 62.1103C215.384 63.3536 215.761 64.8396 215.761 66.5824H216.484C216.484 64.7332 216.083 63.1147 215.266 61.741L214.645 62.1103ZM215.761 66.5824C215.761 68.3509 215.376 69.8293 214.623 71.0351L215.236 71.4176C216.074 70.0748 216.484 68.4572 216.484 66.5824H215.761ZM214.624 71.0341C213.869 72.2356 212.796 73.1568 211.393 73.7969L211.693 74.4543C213.214 73.7602 214.4 72.7486 215.235 71.4186L214.624 71.0341ZM211.394 73.7962C209.989 74.4292 208.31 74.7521 206.347 74.7521V75.4746C208.387 75.4746 210.172 75.139 211.691 74.455L211.394 73.7962ZM206.347 74.7521H199.484V75.4746H206.347V74.7521ZM199.845 75.1134V70.1103H199.123V75.1134H199.845ZM199.484 70.4715H205.167V69.749H199.484V70.4715ZM205.167 70.4715C206.153 70.4715 207 70.3442 207.696 70.0752L207.436 69.4013C206.849 69.6283 206.096 69.749 205.167 69.749V70.4715ZM207.699 70.0743C208.408 69.7942 208.964 69.3653 209.344 68.7806L208.738 68.3868C208.451 68.8283 208.024 69.1692 207.433 69.4022L207.699 70.0743ZM209.346 68.7783C209.726 68.1829 209.903 67.4427 209.903 66.5824H209.18C209.18 67.3471 209.023 67.941 208.737 68.3891L209.346 68.7783ZM209.903 66.5824C209.903 65.7218 209.726 64.9786 209.347 64.376L208.735 64.7607C209.023 65.2185 209.18 65.8181 209.18 66.5824H209.903ZM209.348 64.3782C208.97 63.7675 208.415 63.3187 207.702 63.028L207.429 63.697C208.017 63.9365 208.445 64.2916 208.734 64.7585L209.348 64.3782ZM207.706 63.0295C206.999 62.7319 206.149 62.5907 205.167 62.5907V63.3132C206.084 63.3132 206.833 63.4457 207.426 63.6954L207.706 63.0295ZM205.167 62.5907H202.037V63.3132H205.167V62.5907ZM201.676 62.9519V84.1062H202.398V62.9519H201.676ZM202.037 83.7449H195.687V84.4675H202.037V83.7449ZM210.161 72.2715L216.703 84.279L217.338 83.9334L210.795 71.9258L210.161 72.2715ZM217.021 83.7449H210.093V84.4675H217.021V83.7449ZM210.412 83.936L203.997 71.9285L203.36 72.2689L209.774 84.2764L210.412 83.936ZM203.679 72.4599H210.478V71.7374H203.679V72.4599ZM219.605 84.1062H219.244V84.4675H219.605V84.1062ZM219.605 57.8334V57.4721H219.244V57.8334H219.605ZM225.956 57.8334H226.317V57.4721H225.956V57.8334ZM225.956 68.9429H225.594V69.3041H225.956V68.9429ZM226.302 68.9429V69.3041H226.478L226.587 69.1654L226.302 68.9429ZM234.987 57.8334V57.4721H234.811L234.702 57.6109L234.987 57.8334ZM242.466 57.8334L242.749 58.058L243.214 57.4721H242.466V57.8334ZM233.152 69.5586L232.87 69.334L232.708 69.5378L232.85 69.7559L233.152 69.5586ZM242.633 84.1062V84.4675H243.299L242.935 83.909L242.633 84.1062ZM235.038 84.1062L234.733 84.2995L234.839 84.4675H235.038V84.1062ZM228.496 73.7792L228.801 73.5859L228.528 73.156L228.212 73.5549L228.496 73.7792ZM225.956 76.9864L225.672 76.7621L225.594 76.8606V76.9864H225.956ZM225.956 84.1062V84.4675H226.317V84.1062H225.956ZM219.967 84.1062V57.8334H219.244V84.1062H219.967ZM219.605 58.1946H225.956V57.4721H219.605V58.1946ZM225.594 57.8334V68.9429H226.317V57.8334H225.594ZM225.956 69.3041H226.302V68.5816H225.956V69.3041ZM226.587 69.1654L235.271 58.0558L234.702 57.6109L226.017 68.7204L226.587 69.1654ZM234.987 58.1946H242.466V57.4721H234.987V58.1946ZM242.183 57.6087L232.87 69.334L233.435 69.7833L242.749 58.058L242.183 57.6087ZM232.85 69.7559L242.33 84.3034L242.935 83.909L233.455 69.3614L232.85 69.7559ZM242.633 83.7449H235.038V84.4675H242.633V83.7449ZM235.343 83.9129L228.801 73.5859L228.19 73.9726L234.733 84.2995L235.343 83.9129ZM228.212 73.5549L225.672 76.7621L226.239 77.2107L228.779 74.0035L228.212 73.5549ZM225.594 76.9864V84.1062H226.317V76.9864H225.594ZM225.956 83.7449H219.605V84.4675H225.956V83.7449ZM244.971 84.1062H244.609V84.4675H244.971V84.1062ZM244.971 57.8334V57.4721H244.609V57.8334H244.971ZM263.29 57.8334H263.651V57.4721H263.29V57.8334ZM263.29 62.9904V63.3517H263.651V62.9904H263.29ZM251.321 62.9904V62.6292H250.96V62.9904H251.321ZM251.321 68.3784H250.96V68.7397H251.321V68.3784ZM262.353 68.3784H262.715V68.0172H262.353V68.3784ZM262.353 73.5483V73.9096H262.715V73.5483H262.353ZM251.321 73.5483V73.1871H250.96V73.5483H251.321ZM251.321 78.9491H250.96V79.3104H251.321V78.9491ZM263.29 78.9491H263.651V78.5879H263.29V78.9491ZM263.29 84.1062V84.4675H263.651V84.1062H263.29ZM245.332 84.1062V57.8334H244.609V84.1062H245.332ZM244.971 58.1946H263.29V57.4721H244.971V58.1946ZM262.929 57.8334V62.9904H263.651V57.8334H262.929ZM263.29 62.6292H251.321V63.3517H263.29V62.6292ZM250.96 62.9904V68.3784H251.682V62.9904H250.96ZM251.321 68.7397H262.353V68.0172H251.321V68.7397ZM261.992 68.3784V73.5483H262.715V68.3784H261.992ZM262.353 73.1871H251.321V73.9096H262.353V73.1871ZM250.96 73.5483V78.9491H251.682V73.5483H250.96ZM251.321 79.3104H263.29V78.5879H251.321V79.3104ZM262.929 78.9491V84.1062H263.651V78.9491H262.929ZM263.29 83.7449H244.971V84.4675H263.29V83.7449ZM266.407 62.9904H266.046V63.3517H266.407V62.9904ZM266.407 57.8334V57.4721H266.046V57.8334H266.407ZM288.613 57.8334H288.975V57.4721H288.613V57.8334ZM288.613 62.9904V63.3517H288.975V62.9904H288.613ZM280.647 62.9904V62.6292H280.286V62.9904H280.647ZM280.647 84.1062V84.4675H281.008V84.1062H280.647ZM274.387 84.1062H274.025V84.4675H274.387V84.1062ZM274.387 62.9904H274.748V62.6292H274.387V62.9904ZM266.768 62.9904V57.8334H266.046V62.9904H266.768ZM266.407 58.1946H288.613V57.4721H266.407V58.1946ZM288.252 57.8334V62.9904H288.975V57.8334H288.252ZM288.613 62.6292H280.647V63.3517H288.613V62.6292ZM280.286 62.9904V84.1062H281.008V62.9904H280.286ZM280.647 83.7449H274.387V84.4675H280.647V83.7449ZM274.748 84.1062V62.9904H274.025V84.1062H274.748ZM274.387 62.6292H266.407V63.3517H274.387V62.6292Z" fill="white" mask="url(#path-5-outside-2_580_3996)" />
                                                <g filter="url(#filter1_d_580_3996)">
                                                        <path d="M132.672 56.027H140.536L147.207 72.2935H147.515L154.185 56.027H162.049V82.2998H155.866V66.1615H155.648L149.336 82.133H145.385L139.073 66.0717H138.855V82.2998H132.672V56.027ZM171.693 82.2998H164.868L173.733 56.027H182.187L191.051 82.2998H184.227L178.056 62.6465H177.851L171.693 82.2998ZM170.782 71.96H185.048V76.7835H170.782V71.96ZM193.88 82.2998V56.027H204.733C206.7 56.027 208.398 56.3819 209.826 57.0917C211.263 57.793 212.37 58.8022 213.149 60.1193C213.927 61.4278 214.316 62.98 214.316 64.776C214.316 66.5977 213.918 68.1457 213.123 69.42C212.328 70.6857 211.199 71.6521 209.736 72.3192C208.274 72.9777 206.542 73.307 204.541 73.307H197.677V68.3039H203.36C204.318 68.3039 205.118 68.1799 205.759 67.9318C206.409 67.6753 206.901 67.2904 207.235 66.7773C207.568 66.2556 207.735 65.5885 207.735 64.776C207.735 63.9635 207.568 63.2922 207.235 62.7619C206.901 62.2231 206.409 61.8212 205.759 61.5561C205.109 61.2824 204.31 61.1455 203.36 61.1455H200.23V82.2998H193.88ZM208.671 70.2923L215.214 82.2998H208.287L201.872 70.2923H208.671ZM217.799 82.2998V56.027H224.149V67.1365H224.495L233.18 56.027H240.659L231.346 67.7522L240.826 82.2998H233.232L226.689 71.9728L224.149 75.18V82.2998H217.799ZM243.164 82.2998V56.027H261.483V61.184H249.514V66.572H260.547V71.7419H249.514V77.1427H261.483V82.2998H243.164ZM264.601 61.184V56.027H286.807V61.184H278.84V82.2998H272.58V61.184H264.601Z" fill="#F7F7FF" />
                                                </g>
                                                <defs>
                                                        <filter id="filter0_d_580_3996" x="0.273228" y="55.668" width="123.814" height="43.2477" filterUnits="userSpaceOnUse" color-interpolation-filters="sRGB">
                                                                <feFlood flood-opacity="0" result="BackgroundImageFix" />
                                                                <feColorMatrix in="SourceAlpha" type="matrix" values="0 0 0 0 0 0 0 0 0 0 0 0 0 0 0 0 0 0 127 0" result="hardAlpha" />
                                                                <feOffset dy="7.22503" />
                                                                <feGaussianBlur stdDeviation="3.61252" />
                                                                <feComposite in2="hardAlpha" operator="out" />
                                                                <feColorMatrix type="matrix" values="0 0 0 0 0 0 0 0 0 0 0 0 0 0 0 0 0 0 0.25 0" />
                                                                <feBlend mode="normal" in2="BackgroundImageFix" result="effect1_dropShadow_580_3996" />
                                                                <feBlend mode="normal" in="SourceGraphic" in2="effect1_dropShadow_580_3996" result="shape" />
                                                        </filter>
                                                        <filter id="filter1_d_580_3996" x="125.447" y="56.0269" width="168.585" height="40.723" filterUnits="userSpaceOnUse" color-interpolation-filters="sRGB">
                                                                <feFlood flood-opacity="0" result="BackgroundImageFix" />
                                                                <feColorMatrix in="SourceAlpha" type="matrix" values="0 0 0 0 0 0 0 0 0 0 0 0 0 0 0 0 0 0 127 0" result="hardAlpha" />
                                                                <feOffset dy="7.22503" />
                                                                <feGaussianBlur stdDeviation="3.61252" />
                                                                <feComposite in2="hardAlpha" operator="out" />
                                                                <feColorMatrix type="matrix" values="0 0 0 0 0 0 0 0 0 0 0 0 0 0 0 0 0 0 0.25 0" />
                                                                <feBlend mode="normal" in2="BackgroundImageFix" result="effect1_dropShadow_580_3996" />
                                                                <feBlend mode="normal" in="SourceGraphic" in2="effect1_dropShadow_580_3996" result="shape" />
                                                        </filter>
                                                        <linearGradient id="paint0_linear_580_3996" x1="85.0651" y1="3.00148" x2="192.081" y2="137.193" gradientUnits="userSpaceOnUse">
                                                                <stop offset="0.583673" stop-color="#000F9E" />
                                                                <stop offset="1" stop-color="#000538" />
                                                        </linearGradient>
                                                </defs>
                                        </svg>