<svg height="18" viewBox="0 0 512 512" width="18" xmlns="http://www.w3.org/2000/svg" xmlns:xlink="http://www.w3.org/1999/xlink"><linearGradient id="linear-gradient" gradientUnits="userSpaceOnUse" x1="74.98" x2="437.02" y1="74.98" y2="437.02"><stop offset="0" stop-color="#21d1f7"/><stop offset="1" stop-color="#2196f3"/></linearGradient><linearGradient id="linear-gradient-2" gradientUnits="userSpaceOnUse" x1="282.31" x2="450.33" y1="255.67" y2="423.7"><stop offset="0" stop-color="#186eb3"/><stop offset=".93" stop-color="#186eb3" stop-opacity="0"/></linearGradient><g id="Layer_2" data-name="Layer 2"><g id="check"><circle id="background" cx="256" cy="256" fill="url(#linear-gradient)" r="256"/><path d="m510 288.42c-12.69 100.42-83.55 182.71-177.76 212l-146.73-146.64 194.25-195.56z" fill="url(#linear-gradient-2)"/><path d="m380.41 158.88-.65-.66a36.16 36.16 0 0 0 -51.14 0l-117.54 117.55-27.57-27.57a36.61 36.61 0 0 0 -51.78 0 36.61 36.61 0 0 0 0 51.79l53.13 53.13.65.66a36.15 36.15 0 0 0 51.13 0l.33-.33 143.44-143.45a36.15 36.15 0 0 0 0-51.12z" fill="#fff"/></g></g></svg>